Coordinates
version=1
nRows=21
nColumns=12
inDegrees=yes

Units are S.I. units (second, meters, Newtons, ...)
Angles are in degrees

endheader
time	SC_y	SC_z	SC_x	AC_y	AC_z	AC_x	GH_y	GH_z	GH_yy	EL_x	PS_y
       0.0              -24.97          31.17          74.78          52.96         -1.839          8.558         -151.2          88.02         -41.17           13.9          125.1
   0.01171              -24.97          31.17          74.77          52.96          -1.84          8.557         -151.2          88.01         -41.16           13.9          125.1
   0.02341              -24.97          31.17          74.76          52.96          -1.84          8.556         -151.2           88.0         -41.15          13.91          125.1
   0.03512              -24.97          31.18          74.75          52.96         -1.841          8.555         -151.2          87.98         -41.13          13.91          125.1
   0.04682              -24.97          31.18          74.74          52.96         -1.842          8.554         -151.2          87.97         -41.12          13.92          125.1
   0.05853              -24.97          31.18          74.73          52.95         -1.843          8.553         -151.2          87.96         -41.11          13.92          125.1
   0.07023              -24.97          31.18          74.72          52.95         -1.844          8.552         -151.2          87.94         -41.09          13.93          125.1
   0.08194              -24.97          31.18           74.7          52.95         -1.845          8.551         -151.1          87.92         -41.07          13.93          125.1
   0.09364              -24.97          31.18          74.69          52.95         -1.846          8.549         -151.1           87.9         -41.06          13.94          125.2
    0.1053              -24.97          31.18          74.68          52.95         -1.847          8.548         -151.1          87.88         -41.04          13.94          125.2
    0.1171              -24.97          31.18          74.66          52.95         -1.848          8.546         -151.1          87.86         -41.02          13.95          125.2
    0.1288              -24.97          31.18          74.64          52.95         -1.849          8.545         -151.1          87.84          -41.0          13.96          125.2
    0.1405              -24.97          31.18          74.63          52.94         -1.851          8.543         -151.0          87.81         -40.97          13.97          125.2
    0.1522              -24.97          31.19          74.61          52.94         -1.852          8.541         -151.0          87.79         -40.95          13.97          125.2
    0.1639              -24.97          31.19          74.58          52.94         -1.854          8.539         -151.0          87.76         -40.92          13.98          125.2
    0.1756              -24.97          31.19          74.56          52.94         -1.856          8.537         -150.9          87.73         -40.89          13.99          125.2
    0.1873              -24.97          31.19          74.54          52.93         -1.858          8.535         -150.9          87.69         -40.86           14.0          125.2
     0.199              -24.97          31.19          74.51          52.93          -1.86          8.532         -150.9          87.66         -40.83          14.02          125.2
    0.2107              -24.97           31.2          74.48          52.93         -1.862          8.529         -150.8          87.62         -40.79          14.03          125.2
    0.2224              -24.97           31.2          74.45          52.92         -1.865          8.526         -150.8          87.57         -40.75          14.04          125.2
    0.2341              -24.97           31.2          74.41          52.92         -1.867          8.523         -150.7          87.52          -40.7          14.06          125.3
